STARTFONT 2.1
FONT -Fondu-Geo 579-Normal-Medium-R-Normal--24-230-75-75-P-269-MacRoman-1
SIZE 23 75 75
FONTBOUNDINGBOX 284 31 -1 -6
COMMENT Created by Fondu from a mac NFNT/FONT resource
STARTPROPERTIES 17
FOUNDRY "Fondu"
FAMILY_NAME "Geo 579-Normal"
WEIGHT_NAME "Medium"
SLANT "R"
SETWIDTH_NAME "Normal"
ADD_STYLE_NAME ""
PIXEL_SIZE 24
POINT_SIZE 230
RESOLUTION_X 75
RESOLUTION_Y 75
SPACING "P"
AVERAGE_WIDTH 269
CHARSET_REGISTRY "MacRoman"
CHARSET_ENCODING "1"
FONT_ASCENT 25
FONT_DESCENT 6
FACE_NAME "Geo 579-Normal"
ENDPROPERTIES
CHARS 227
STARTCHAR Eth
ENCODING 1
SWIDTH 736 0
DWIDTH 18 0
BBX 16 18 0 0
BITMAP
3FC0
3FF8
303C
300E
3006
3007
3003
3003
FF83
3003
3003
3003
3007
3006
301E
303C
3FF8
3FC0
ENDCHAR
STARTCHAR eth
ENCODING 2
SWIDTH 606 0
DWIDTH 15 0
BBX 13 18 1 0
BITMAP
1820
1EE0
0780
1DC0
20E0
0FF0
3FF0
7070
6038
C018
C018
C018
C018
C018
6030
7070
3FE0
0F80
ENDCHAR
STARTCHAR Lslash
ENCODING 3
SWIDTH 500 0
DWIDTH 255 0
BBX 0 0 -1 -6
BITMAP
ENDCHAR
STARTCHAR lslash
ENCODING 4
SWIDTH 500 0
DWIDTH 255 0
BBX 0 0 -1 -6
BITMAP
ENDCHAR
STARTCHAR Scaron
ENCODING 5
SWIDTH 616 0
DWIDTH 15 0
BBX 12 24 1 0
BITMAP
30C0
1980
0F00
0700
0000
1F80
7FC0
70E0
C060
C070
C030
E000
7000
7E00
1F80
07E0
00E0
0070
0030
C030
E030
70E0
7FE0
1F80
ENDCHAR
STARTCHAR scaron
ENCODING 6
SWIDTH 468 0
DWIDTH 11 0
BBX 9 18 1 0
BITMAP
6300
3600
3C00
1C00
0000
3E00
7F00
E300
C180
C000
7800
3F00
0780
0180
C180
E380
7F00
3E00
ENDCHAR
STARTCHAR Yacute
ENCODING 7
SWIDTH 613 0
DWIDTH 15 0
BBX 15 24 0 0
BITMAP
00E0
00C0
0180
0100
0000
8000
700E
701C
3818
1838
1C30
0C70
0E60
07E0
03C0
03C0
0180
0180
0180
0180
0180
0180
0180
0180
ENDCHAR
STARTCHAR yacute
ENCODING 8
SWIDTH 556 0
DWIDTH 13 0
BBX 13 23 0 -5
BITMAP
0180
0300
0200
0600
0000
0008
E030
6030
7070
3060
38E0
18C0
18C0
1D80
0D80
0D80
0700
0700
0600
0600
0C00
0C00
1800
ENDCHAR
STARTCHAR char000a
ENCODING 10
SWIDTH 500 0
DWIDTH 255 0
BBX 0 0 -1 -6
BITMAP
ENDCHAR
STARTCHAR Thorn
ENCODING 11
SWIDTH 560 0
DWIDTH 13 0
BBX 11 18 2 0
BITMAP
C000
C000
C000
FE00
FFC0
C1C0
C0E0
C060
C060
C060
C060
C0E0
C1C0
FF80
FF00
C000
C000
C000
ENDCHAR
STARTCHAR thorn
ENCODING 12
SWIDTH 664 0
DWIDTH 16 0
BBX 13 23 2 -5
BITMAP
C000
C000
C000
C000
C000
CFC0
DFE0
F070
E030
C018
C018
C018
C018
C018
E030
F070
DFE0
CF80
C000
C000
C000
C000
C000
ENDCHAR
STARTCHAR Zcaron
ENCODING 14
SWIDTH 500 0
DWIDTH 255 0
BBX 0 0 -1 -6
BITMAP
ENDCHAR
STARTCHAR zcaron
ENCODING 15
SWIDTH 500 0
DWIDTH 255 0
BBX 0 0 -1 -6
BITMAP
ENDCHAR
STARTCHAR char0010
ENCODING 16
SWIDTH 500 0
DWIDTH 255 0
BBX 0 0 -1 -6
BITMAP
ENDCHAR
STARTCHAR char0011
ENCODING 17
SWIDTH 500 0
DWIDTH 255 0
BBX 0 0 -1 -6
BITMAP
ENDCHAR
STARTCHAR char0012
ENCODING 18
SWIDTH 500 0
DWIDTH 255 0
BBX 0 0 -1 -6
BITMAP
ENDCHAR
STARTCHAR char0013
ENCODING 19
SWIDTH 500 0
DWIDTH 255 0
BBX 0 0 -1 -6
BITMAP
ENDCHAR
STARTCHAR char0014
ENCODING 20
SWIDTH 500 0
DWIDTH 255 0
BBX 0 0 -1 -6
BITMAP
ENDCHAR
STARTCHAR onehalf
ENCODING 21
SWIDTH 867 0
DWIDTH 21 0
BBX 18 18 2 0
BITMAP
100600
700C00
B00C00
301800
303000
303000
306000
306000
30C780
30CC40
018C40
038040
030080
060180
060300
0C0200
0C0600
180FC0
ENDCHAR
STARTCHAR onequarter
ENCODING 22
SWIDTH 867 0
DWIDTH 21 0
BBX 18 18 2 0
BITMAP
200E00
600C00
A01800
201800
203000
206000
206000
20C000
20C040
218080
210180
030380
060680
060480
0C0880
0C1FC0
180080
300080
ENDCHAR
STARTCHAR onesuperior
ENCODING 23
SWIDTH 367 0
DWIDTH 9 0
BBX 4 11 2 7
BITMAP
10
70
D0
10
10
10
10
10
10
10
10
ENDCHAR
STARTCHAR threequarters
ENCODING 24
SWIDTH 868 0
DWIDTH 21 0
BBX 20 18 0 0
BITMAP
7E0380
0C0300
080600
100600
3C0C00
461800
021800
023000
C63020
7C6060
00C060
00C0A0
0181A0
018320
030220
0207F0
060020
0C0020
ENDCHAR
STARTCHAR threesuperior
ENCODING 25
SWIDTH 367 0
DWIDTH 9 0
BBX 7 11 1 7
BITMAP
7E
0C
08
10
3C
46
02
02
02
C6
7C
ENDCHAR
STARTCHAR twosuperior
ENCODING 26
SWIDTH 367 0
DWIDTH 9 0
BBX 7 11 1 7
BITMAP
7C
C6
C2
02
06
0C
18
18
30
60
FE
ENDCHAR
STARTCHAR brokenbar
ENCODING 27
SWIDTH 500 0
DWIDTH 12 0
BBX 2 21 5 -4
BITMAP
C0
C0
C0
C0
C0
C0
C0
C0
C0
00
00
00
C0
C0
C0
C0
C0
C0
C0
C0
C0
ENDCHAR
STARTCHAR minus
ENCODING 28
SWIDTH 319 0
DWIDTH 8 0
BBX 6 2 1 5
BITMAP
FC
FC
ENDCHAR
STARTCHAR multiply
ENCODING 29
SWIDTH 833 0
DWIDTH 20 0
BBX 14 14 3 0
BITMAP
4008
E01C
7038
3870
1CE0
0FC0
0780
0780
0FC0
1CE0
3870
7038
E01C
4008
ENDCHAR
STARTCHAR char001e
ENCODING 30
SWIDTH 500 0
DWIDTH 255 0
BBX 0 0 -1 -6
BITMAP
ENDCHAR
STARTCHAR char001f
ENCODING 31
SWIDTH 500 0
DWIDTH 255 0
BBX 0 0 -1 -6
BITMAP
ENDCHAR
STARTCHAR space
ENCODING 32
SWIDTH 278 0
DWIDTH 7 0
BBX 0 0 0 -6
BITMAP
ENDCHAR
STARTCHAR exclam
ENCODING 33
SWIDTH 278 0
DWIDTH 7 0
BBX 3 18 2 0
BITMAP
C0
C0
C0
C0
C0
C0
C0
C0
C0
C0
C0
C0
C0
C0
00
C0
E0
C0
ENDCHAR
STARTCHAR quotedbl
ENCODING 34
SWIDTH 314 0
DWIDTH 8 0
BBX 6 7 1 10
BITMAP
CC
CC
CC
CC
CC
CC
CC
ENDCHAR
STARTCHAR numbersign
ENCODING 35
SWIDTH 769 0
DWIDTH 18 0
BBX 17 17 1 0
BITMAP
00C600
01CE00
018C00
018C00
031C00
3FFF80
3FFF00
063800
063000
063000
7FFE00
FFFE00
1C6000
18C000
18C000
38C000
318000
ENDCHAR
STARTCHAR dollar
ENCODING 36
SWIDTH 556 0
DWIDTH 13 0
BBX 10 21 2 -2
BITMAP
0800
0800
3F00
7F80
E980
C9C0
C8C0
C800
6800
7C00
1F00
0F80
09C0
08C0
C8C0
C8C0
6980
7F80
1E00
0800
0800
ENDCHAR
STARTCHAR percent
ENCODING 37
SWIDTH 875 0
DWIDTH 21 0
BBX 19 18 1 0
BITMAP
380600
7C0C00
C60C00
C61800
C61800
C63000
C63000
7C6000
386000
00C380
00C7C0
018C60
018C60
030C60
030C60
060C60
0607C0
0C0380
ENDCHAR
STARTCHAR ampersand
ENCODING 38
SWIDTH 685 0
DWIDTH 16 0
BBX 15 18 1 0
BITMAP
0700
0F80
18C0
18C0
18C0
1D80
0F80
0F00
3F00
7384
618C
C1DC
C0F8
C070
C0F0
E3F8
7F1C
3C0E
ENDCHAR
STARTCHAR quotesingle
ENCODING 39
SWIDTH 163 0
DWIDTH 4 0
BBX 2 7 1 10
BITMAP
C0
C0
C0
C0
C0
C0
C0
ENDCHAR
STARTCHAR parenleft
ENCODING 40
SWIDTH 398 0
DWIDTH 10 0
BBX 6 24 2 -5
BITMAP
08
1C
38
30
70
60
60
E0
C0
C0
C0
C0
C0
C0
C0
C0
E0
60
60
70
30
38
1C
08
ENDCHAR
STARTCHAR parenright
ENCODING 41
SWIDTH 398 0
DWIDTH 10 0
BBX 6 24 1 -5
BITMAP
40
E0
70
30
38
18
18
1C
0C
0C
0C
0C
0C
0C
0C
0C
1C
18
18
38
30
70
E0
40
ENDCHAR
STARTCHAR asterisk
ENCODING 42
SWIDTH 500 0
DWIDTH 12 0
BBX 11 10 1 9
BITMAP
0E00
0400
4420
64C0
FFE0
0E00
1B00
3B80
71C0
1100
ENDCHAR
STARTCHAR plus
ENCODING 43
SWIDTH 833 0
DWIDTH 20 0
BBX 14 14 3 0
BITMAP
0300
0300
0300
0300
0300
0300
FFFC
FFFC
0300
0300
0300
0300
0300
0300
ENDCHAR
STARTCHAR comma
ENCODING 44
SWIDTH 278 0
DWIDTH 7 0
BBX 5 7 0 -4
BITMAP
30
38
30
70
60
C0
40
ENDCHAR
STARTCHAR hyphen
ENCODING 45
SWIDTH 319 0
DWIDTH 8 0
BBX 6 2 1 5
BITMAP
FC
FC
ENDCHAR
STARTCHAR period
ENCODING 46
SWIDTH 278 0
DWIDTH 7 0
BBX 3 3 2 0
BITMAP
E0
E0
E0
ENDCHAR
STARTCHAR slash
ENCODING 47
SWIDTH 278 0
DWIDTH 7 0
BBX 8 21 -1 -2
BITMAP
03
02
06
06
06
0C
0C
0C
08
18
18
18
10
30
30
30
60
60
60
40
C0
ENDCHAR
STARTCHAR zero
ENCODING 48
SWIDTH 556 0
DWIDTH 13 0
BBX 11 18 1 0
BITMAP
1F00
7FC0
71C0
E0E0
C060
C060
C060
C060
C060
C060
C060
C060
C060
C060
E0E0
71C0
7FC0
1F00
ENDCHAR
STARTCHAR one
ENCODING 49
SWIDTH 556 0
DWIDTH 13 0
BBX 5 18 3 0
BITMAP
08
18
78
F8
98
18
18
18
18
18
18
18
18
18
18
18
18
18
ENDCHAR
STARTCHAR two
ENCODING 50
SWIDTH 556 0
DWIDTH 13 0
BBX 11 18 1 0
BITMAP
0F80
3FC0
70E0
7060
6060
0060
00E0
00C0
01C0
0380
0300
0700
0E00
1C00
1800
3800
7FE0
FFE0
ENDCHAR
STARTCHAR three
ENCODING 51
SWIDTH 556 0
DWIDTH 13 0
BBX 11 18 1 0
BITMAP
7FC0
7FC0
0180
0300
0700
0600
0C00
1F00
1F80
21C0
00E0
0060
0060
0060
40E0
F1C0
7F80
1F00
ENDCHAR
STARTCHAR four
ENCODING 52
SWIDTH 556 0
DWIDTH 13 0
BBX 11 18 1 0
BITMAP
0080
0080
0180
0380
0380
0780
0D80
0D80
1980
3180
3180
6180
FFE0
FFE0
0180
0180
0180
0180
ENDCHAR
STARTCHAR five
ENCODING 53
SWIDTH 556 0
DWIDTH 13 0
BBX 11 18 1 0
BITMAP
7FC0
7FC0
6000
6000
6000
6000
6000
7F00
7F80
61C0
00E0
0060
0060
0060
40E0
E1C0
7F80
1F00
ENDCHAR
STARTCHAR six
ENCODING 54
SWIDTH 556 0
DWIDTH 13 0
BBX 11 18 1 0
BITMAP
0380
0300
0700
0E00
0C00
1C00
3800
3F00
7FC0
71C0
E0E0
C060
C060
C060
E0E0
71C0
7F80
1F00
ENDCHAR
STARTCHAR seven
ENCODING 55
SWIDTH 556 0
DWIDTH 13 0
BBX 11 18 2 0
BITMAP
FFE0
FFC0
01C0
0180
0180
0300
0300
0700
0600
0E00
0C00
0C00
1C00
1800
3800
3000
7000
6000
ENDCHAR
STARTCHAR eight
ENCODING 56
SWIDTH 556 0
DWIDTH 13 0
BBX 11 18 1 0
BITMAP
1F00
3F80
71C0
60C0
60C0
60C0
71C0
3F80
3F80
71C0
60C0
C060
C060
C060
E0E0
71C0
3F80
1F00
ENDCHAR
STARTCHAR nine
ENCODING 57
SWIDTH 556 0
DWIDTH 13 0
BBX 11 18 1 0
BITMAP
1F00
3FC0
71C0
E0E0
C060
C060
C060
E0E0
71C0
7FC0
1F80
0380
0700
0600
0E00
1C00
1800
3800
ENDCHAR
STARTCHAR colon
ENCODING 58
SWIDTH 278 0
DWIDTH 7 0
BBX 3 13 2 0
BITMAP
E0
E0
E0
00
00
00
00
00
00
00
E0
E0
E0
ENDCHAR
STARTCHAR semicolon
ENCODING 59
SWIDTH 278 0
DWIDTH 7 0
BBX 4 17 1 -4
BITMAP
70
70
70
00
00
00
00
00
00
00
20
70
60
60
C0
C0
80
ENDCHAR
STARTCHAR less
ENCODING 60
SWIDTH 833 0
DWIDTH 20 0
BBX 14 14 3 0
BITMAP
0004
003C
00F8
03E0
0F80
7C00
F000
F000
7C00
0F80
03E0
00F8
003C
0004
ENDCHAR
STARTCHAR equal
ENCODING 61
SWIDTH 833 0
DWIDTH 20 0
BBX 14 7 3 4
BITMAP
FFFC
FFFC
0000
0000
0000
FFFC
FFFC
ENDCHAR
STARTCHAR greater
ENCODING 62
SWIDTH 833 0
DWIDTH 20 0
BBX 14 14 3 0
BITMAP
8000
F000
7C00
1F00
07C0
00F8
003C
003C
00F8
07C0
1F00
7C00
F000
8000
ENDCHAR
STARTCHAR question
ENCODING 63
SWIDTH 491 0
DWIDTH 12 0
BBX 10 19 1 0
BITMAP
1F00
3F80
71C0
60C0
E0C0
00C0
01C0
0380
0700
0E00
1C00
1C00
1800
1800
0000
0000
1800
1C00
1800
ENDCHAR
STARTCHAR at
ENCODING 64
SWIDTH 1000 0
DWIDTH 24 0
BBX 22 21 1 -4
BITMAP
007F00
01FFC0
0780E0
1C0030
380018
70790C
61C70C
E1870C
C3830C
C3070C
C3061C
C30618
C30E38
C38E70
619FE0
61F7C0
300000
1C0060
0F01C0
03FF80
00FE00
ENDCHAR
STARTCHAR A
ENCODING 65
SWIDTH 727 0
DWIDTH 17 0
BBX 18 18 0 0
BITMAP
00C000
01E000
01E000
03E000
037000
033000
073800
061800
0E1C00
0C1C00
1C0E00
1C0E00
1FFE00
3FFF00
300700
700380
600380
E001C0
ENDCHAR
STARTCHAR B
ENCODING 66
SWIDTH 620 0
DWIDTH 15 0
BBX 12 18 2 0
BITMAP
FE00
FFC0
C3C0
C0C0
C0C0
C0C0
C0C0
C3C0
FF00
FFC0
C0E0
C070
C030
C030
C070
C0E0
FFC0
FF80
ENDCHAR
STARTCHAR C
ENCODING 67
SWIDTH 750 0
DWIDTH 18 0
BBX 16 19 1 0
BITMAP
03F8
0FFE
3C0F
3802
7000
6000
E000
C000
C000
C000
C000
C000
E000
6000
7000
3802
3C0F
0FFE
03F8
ENDCHAR
STARTCHAR D
ENCODING 68
SWIDTH 736 0
DWIDTH 18 0
BBX 14 18 2 0
BITMAP
FF00
FFE0
C0F0
C038
C018
C01C
C00C
C00C
C00C
C00C
C00C
C00C
C01C
C018
C038
C0F0
FFE0
FF00
ENDCHAR
STARTCHAR E
ENCODING 69
SWIDTH 569 0
DWIDTH 14 0
BBX 10 18 2 0
BITMAP
FFC0
FFC0
C000
C000
C000
C000
C000
C000
FFC0
FFC0
C000
C000
C000
C000
C000
C000
FFC0
FFC0
ENDCHAR
STARTCHAR F
ENCODING 70
SWIDTH 551 0
DWIDTH 13 0
BBX 10 18 2 0
BITMAP
FFC0
FFC0
C000
C000
C000
C000
C000
C000
FFC0
FFC0
C000
C000
C000
C000
C000
C000
C000
C000
ENDCHAR
STARTCHAR G
ENCODING 71
SWIDTH 875 0
DWIDTH 21 0
BBX 19 19 1 0
BITMAP
03F800
0FFE00
3C0F00
380600
700000
600000
E00000
C00000
C00000
C03FE0
C03FE0
C000E0
C000C0
6001C0
7001C0
380380
3C0F00
0FFE00
03F800
ENDCHAR
STARTCHAR H
ENCODING 72
SWIDTH 775 0
DWIDTH 19 0
BBX 14 18 2 0
BITMAP
C00C
C00C
C00C
C00C
C00C
C00C
C00C
FFFC
FFFC
C00C
C00C
C00C
C00C
C00C
C00C
C00C
C00C
C00C
ENDCHAR
STARTCHAR I
ENCODING 73
SWIDTH 278 0
DWIDTH 7 0
BBX 2 18 2 0
BITMAP
C0
C0
C0
C0
C0
C0
C0
C0
C0
C0
C0
C0
C0
C0
C0
C0
C0
C0
ENDCHAR
STARTCHAR J
ENCODING 74
SWIDTH 477 0
DWIDTH 11 0
BBX 8 18 1 0
BITMAP
FF
FF
03
03
03
03
03
03
03
03
03
03
03
03
07
0E
FC
F8
ENDCHAR
STARTCHAR K
ENCODING 75
SWIDTH 655 0
DWIDTH 16 0
BBX 13 18 2 0
BITMAP
C070
C0E0
C1C0
C380
C700
C700
CE00
DC00
F800
F800
FC00
DE00
CF00
C780
C380
C1C0
C0E0
C078
ENDCHAR
STARTCHAR L
ENCODING 76
SWIDTH 481 0
DWIDTH 12 0
BBX 9 18 2 0
BITMAP
C000
C000
C000
C000
C000
C000
C000
C000
C000
C000
C000
C000
C000
C000
C000
C000
FF80
FF80
ENDCHAR
STARTCHAR M
ENCODING 77
SWIDTH 993 0
DWIDTH 24 0
BBX 20 18 2 0
BITMAP
C00030
E00070
E000F0
F000F0
F801F0
D801B0
DC03B0
CC0330
CE0730
C70E30
C30C30
C39C30
C19830
C1F830
C0F030
C07030
C06030
C02030
ENDCHAR
STARTCHAR N
ENCODING 78
SWIDTH 773 0
DWIDTH 19 0
BBX 14 18 2 0
BITMAP
C00C
E00C
F00C
F80C
F80C
DC0C
CE0C
C60C
C70C
C38C
C1CC
C0CC
C0EC
C07C
C03C
C01C
C01C
C00C
ENDCHAR
STARTCHAR O
ENCODING 79
SWIDTH 891 0
DWIDTH 21 0
BBX 19 19 1 0
BITMAP
03F800
0FFE00
3E0F80
380380
7001C0
6000C0
E000E0
C00060
C00060
C00060
C00060
C00060
E000E0
6000C0
7001C0
380380
3E0F80
0FFE00
03F800
ENDCHAR
STARTCHAR P
ENCODING 80
SWIDTH 560 0
DWIDTH 13 0
BBX 11 18 2 0
BITMAP
FE00
FF80
C1C0
C0E0
C060
C060
C060
C060
C0E0
C1C0
FF80
FF00
C000
C000
C000
C000
C000
C000
ENDCHAR
STARTCHAR Q
ENCODING 81
SWIDTH 891 0
DWIDTH 21 0
BBX 19 19 1 0
BITMAP
03F000
0FFE00
3C0F00
380780
7003C0
6001C0
E000E0
C000E0
C000E0
C000E0
C000E0
C000E0
E009E0
601DC0
700F80
380780
3C0F80
0FFDE0
03F0C0
ENDCHAR
STARTCHAR R
ENCODING 82
SWIDTH 616 0
DWIDTH 15 0
BBX 12 18 2 0
BITMAP
FF00
FFC0
C1C0
C0E0
C060
C060
C060
C0E0
C1C0
FFC0
FF00
DC00
CE00
C700
C380
C1C0
C0C0
C070
ENDCHAR
STARTCHAR S
ENCODING 83
SWIDTH 616 0
DWIDTH 15 0
BBX 12 19 1 0
BITMAP
1F80
7FC0
70E0
C060
C070
C030
E000
7000
7E00
1F80
07E0
00E0
0070
0030
C030
E030
70E0
7FE0
1F80
ENDCHAR
STARTCHAR T
ENCODING 84
SWIDTH 507 0
DWIDTH 12 0
BBX 12 18 0 0
BITMAP
FFF0
FFF0
0600
0600
0600
0600
0600
0600
0600
0600
0600
0600
0600
0600
0600
0600
0600
0600
ENDCHAR
STARTCHAR U
ENCODING 85
SWIDTH 748 0
DWIDTH 18 0
BBX 14 18 2 0
BITMAP
C00C
C00C
C00C
C00C
C00C
C00C
C00C
C00C
C00C
C00C
C00C
C00C
C00C
E01C
6018
7838
3FF0
0FC0
ENDCHAR
STARTCHAR V
ENCODING 86
SWIDTH 639 0
DWIDTH 15 0
BBX 16 18 0 0
BITMAP
E007
6006
700E
300C
300C
381C
1818
1818
1C38
0C30
0C30
0660
0660
0760
03C0
03C0
03C0
0180
ENDCHAR
STARTCHAR W
ENCODING 87
SWIDTH 972 0
DWIDTH 23 0
BBX 24 18 0 0
BITMAP
E01807
603C06
603C06
703C0E
303C0C
30660C
38660C
18661C
18C318
18C318
1CC338
0D83B0
0D81B0
0D81B0
0781E0
0700E0
0700E0
0300E0
ENDCHAR
STARTCHAR X
ENCODING 88
SWIDTH 660 0
DWIDTH 16 0
BBX 16 18 0 0
BITMAP
700E
300C
381C
1C38
0C30
0E70
07E0
03C0
03C0
03C0
07E0
0660
0E70
1C38
1818
381C
700E
E007
ENDCHAR
STARTCHAR Y
ENCODING 89
SWIDTH 613 0
DWIDTH 15 0
BBX 15 18 0 0
BITMAP
F00E
700C
381C
3818
1C30
0C70
0E60
07E0
03C0
03C0
0180
0180
0180
0180
0180
0180
0180
0180
ENDCHAR
STARTCHAR Z
ENCODING 90
SWIDTH 620 0
DWIDTH 15 0
BBX 15 18 0 0
BITMAP
7FFE
7FFC
0038
0038
0070
00E0
00E0
01C0
0380
0380
0700
0E00
0E00
1C00
3800
3800
7FFC
FFFC
ENDCHAR
STARTCHAR bracketleft
ENCODING 91
SWIDTH 308 0
DWIDTH 7 0
BBX 5 23 2 -5
BITMAP
F8
F8
C0
C0
C0
C0
C0
C0
C0
C0
C0
C0
C0
C0
C0
C0
C0
C0
C0
C0
C0
F8
F8
ENDCHAR
STARTCHAR backslash
ENCODING 92
SWIDTH 278 0
DWIDTH 7 0
BBX 8 21 -1 -2
BITMAP
C0
40
60
60
60
30
30
30
10
18
18
18
08
0C
0C
0C
06
06
06
02
03
ENDCHAR
STARTCHAR bracketright
ENCODING 93
SWIDTH 308 0
DWIDTH 7 0
BBX 5 23 0 -5
BITMAP
F8
F8
18
18
18
18
18
18
18
18
18
18
18
18
18
18
18
18
18
18
18
F8
F8
ENDCHAR
STARTCHAR asciicircum
ENCODING 94
SWIDTH 1000 0
DWIDTH 24 0
BBX 15 6 5 11
BITMAP
0380
07C0
0EE0
1C70
3018
E00E
ENDCHAR
STARTCHAR underscore
ENCODING 95
SWIDTH 500 0
DWIDTH 12 0
BBX 12 2 0 -6
BITMAP
FFF0
FFF0
ENDCHAR
STARTCHAR grave
ENCODING 96
SWIDTH 500 0
DWIDTH 12 0
BBX 5 4 3 14
BITMAP
E0
60
30
18
ENDCHAR
STARTCHAR a
ENCODING 97
SWIDTH 664 0
DWIDTH 16 0
BBX 13 13 1 0
BITMAP
1F98
3FD8
7078
6038
C018
C018
C018
C018
C018
6038
7078
3FD8
0F98
ENDCHAR
STARTCHAR b
ENCODING 98
SWIDTH 664 0
DWIDTH 16 0
BBX 13 18 2 0
BITMAP
C000
C000
C000
C000
C000
CFC0
DFE0
F070
E030
C018
C018
C018
C018
C018
E030
F070
DFE0
CF80
ENDCHAR
STARTCHAR c
ENCODING 99
SWIDTH 536 0
DWIDTH 13 0
BBX 11 13 1 0
BITMAP
0F80
3FE0
70C0
6000
C000
C000
C000
C000
C000
6000
70C0
3FE0
0F80
ENDCHAR
STARTCHAR d
ENCODING 100
SWIDTH 674 0
DWIDTH 16 0
BBX 13 18 1 0
BITMAP
0018
0018
0018
0018
0018
0F98
3FD8
7078
6038
C018
C018
C018
C018
C018
6038
7078
3FD8
0F98
ENDCHAR
STARTCHAR e
ENCODING 101
SWIDTH 625 0
DWIDTH 15 0
BBX 13 13 1 0
BITMAP
0F80
3FC0
70E0
6070
C030
C038
FFF8
FFF8
C000
E010
7070
3FE0
0F80
ENDCHAR
STARTCHAR f
ENCODING 102
SWIDTH 309 0
DWIDTH 7 0
BBX 6 18 1 0
BITMAP
0C
1C
30
30
30
FC
FC
30
30
30
30
30
30
30
30
30
30
30
ENDCHAR
STARTCHAR g
ENCODING 103
SWIDTH 664 0
DWIDTH 16 0
BBX 13 18 1 -5
BITMAP
1F98
3FD8
7078
6038
C018
C018
C018
C018
C018
6038
7078
3FD8
0F98
0018
4030
F070
7FE0
1F80
ENDCHAR
STARTCHAR h
ENCODING 104
SWIDTH 593 0
DWIDTH 14 0
BBX 11 18 2 0
BITMAP
C000
C000
C000
C000
C000
CF80
FFC0
F0C0
E060
C060
C060
C060
C060
C060
C060
C060
C060
C060
ENDCHAR
STARTCHAR i
ENCODING 105
SWIDTH 250 0
DWIDTH 6 0
BBX 3 18 1 0
BITMAP
60
E0
60
00
00
00
60
60
60
60
60
60
60
60
60
60
60
60
ENDCHAR
STARTCHAR j
ENCODING 106
SWIDTH 259 0
DWIDTH 6 0
BBX 4 23 1 -5
BITMAP
60
70
60
00
00
00
60
60
60
60
60
60
60
60
60
60
60
60
60
60
60
C0
80
ENDCHAR
STARTCHAR k
ENCODING 107
SWIDTH 542 0
DWIDTH 13 0
BBX 11 18 2 0
BITMAP
C000
C000
C000
C000
C000
C040
C180
C300
C600
DC00
F800
F000
D800
DC00
CE00
C700
C380
C1E0
ENDCHAR
STARTCHAR l
ENCODING 108
SWIDTH 250 0
DWIDTH 6 0
BBX 2 18 2 0
BITMAP
C0
C0
C0
C0
C0
C0
C0
C0
C0
C0
C0
C0
C0
C0
C0
C0
C0
C0
ENDCHAR
STARTCHAR m
ENCODING 109
SWIDTH 907 0
DWIDTH 22 0
BBX 18 13 2 0
BITMAP
CF1F00
FFBF80
E1E180
E0E0C0
C0C0C0
C0C0C0
C0C0C0
C0C0C0
C0C0C0
C0C0C0
C0C0C0
C0C0C0
C0C0C0
ENDCHAR
STARTCHAR n
ENCODING 110
SWIDTH 593 0
DWIDTH 14 0
BBX 11 13 2 0
BITMAP
CF80
FFC0
F0C0
E0E0
C060
C060
C060
C060
C060
C060
C060
C060
C060
ENDCHAR
STARTCHAR o
ENCODING 111
SWIDTH 618 0
DWIDTH 15 0
BBX 13 13 1 0
BITMAP
0F80
3FE0
7070
6030
C018
C018
C018
C018
C018
6030
7070
3FE0
0F80
ENDCHAR
STARTCHAR p
ENCODING 112
SWIDTH 664 0
DWIDTH 16 0
BBX 13 18 2 -5
BITMAP
CFC0
DFE0
F070
E030
C018
C018
C018
C018
C018
E030
F070
DFE0
CF80
C000
C000
C000
C000
C000
ENDCHAR
STARTCHAR q
ENCODING 113
SWIDTH 664 0
DWIDTH 16 0
BBX 13 18 1 -5
BITMAP
1F98
3FD8
7078
6038
C018
C018
C018
C018
C018
6038
7078
3FD8
0F98
0018
0018
0018
0018
0018
ENDCHAR
STARTCHAR r
ENCODING 114
SWIDTH 356 0
DWIDTH 9 0
BBX 6 13 2 0
BITMAP
DC
FC
E0
C0
C0
C0
C0
C0
C0
C0
C0
C0
C0
ENDCHAR
STARTCHAR s
ENCODING 115
SWIDTH 468 0
DWIDTH 11 0
BBX 9 13 1 0
BITMAP
3E00
7F00
E300
C180
C000
7800
3F00
0780
0180
C180
E380
7F00
3E00
ENDCHAR
STARTCHAR t
ENCODING 116
SWIDTH 315 0
DWIDTH 8 0
BBX 6 16 0 0
BITMAP
30
30
30
FC
FC
30
30
30
30
30
30
30
30
30
3C
1C
ENDCHAR
STARTCHAR u
ENCODING 117
SWIDTH 579 0
DWIDTH 14 0
BBX 10 13 2 0
BITMAP
C0C0
C0C0
C0C0
C0C0
C0C0
C0C0
C0C0
C0C0
C0C0
E1C0
6180
7F80
1E00
ENDCHAR
STARTCHAR v
ENCODING 118
SWIDTH 560 0
DWIDTH 13 0
BBX 13 13 0 0
BITMAP
E038
6030
7030
3060
3060
38E0
18C0
18C0
0D80
0D80
0700
0700
0700
ENDCHAR
STARTCHAR w
ENCODING 119
SWIDTH 843 0
DWIDTH 20 0
BBX 20 13 0 0
BITMAP
E06070
60F060
60F060
70F0E0
3198C0
3198C0
199980
1B0D80
1B0D80
0F0F00
0E0700
0E0700
060600
ENDCHAR
STARTCHAR x
ENCODING 120
SWIDTH 551 0
DWIDTH 13 0
BBX 14 13 0 0
BITMAP
7038
3070
1860
1CE0
0FC0
0780
0300
0780
0FC0
1CE0
3870
7038
F03C
ENDCHAR
STARTCHAR y
ENCODING 121
SWIDTH 556 0
DWIDTH 13 0
BBX 13 18 0 -5
BITMAP
E038
6030
7070
3060
3060
38E0
18C0
18C0
0D80
0D80
0D00
0700
0700
0600
0600
0C00
0C00
1800
ENDCHAR
STARTCHAR z
ENCODING 122
SWIDTH 477 0
DWIDTH 11 0
BBX 10 13 0 0
BITMAP
7FC0
7F80
0300
0300
0600
0E00
0C00
1C00
1800
3000
3000
7FC0
FFC0
ENDCHAR
STARTCHAR braceleft
ENCODING 123
SWIDTH 500 0
DWIDTH 12 0
BBX 9 22 2 -5
BITMAP
0780
1F80
1C00
1C00
1C00
1C00
1C00
1C00
1C00
3C00
F800
F800
3C00
1C00
1C00
1C00
1C00
1C00
1C00
1C00
1F80
0780
ENDCHAR
STARTCHAR bar
ENCODING 124
SWIDTH 500 0
DWIDTH 12 0
BBX 2 24 5 -6
BITMAP
C0
C0
C0
C0
C0
C0
C0
C0
C0
C0
C0
C0
C0
C0
C0
C0
C0
C0
C0
C0
C0
C0
C0
C0
ENDCHAR
STARTCHAR braceright
ENCODING 125
SWIDTH 500 0
DWIDTH 12 0
BBX 8 22 2 -5
BITMAP
E0
F0
30
30
30
30
30
30
30
38
1F
1F
38
30
30
30
30
30
30
30
F0
E0
ENDCHAR
STARTCHAR asciitilde
ENCODING 126
SWIDTH 833 0
DWIDTH 20 0
BBX 16 4 2 5
BITMAP
1C01
7F83
E1FE
8038
ENDCHAR
STARTCHAR Adieresis
ENCODING 128
SWIDTH 727 0
DWIDTH 17 0
BBX 18 23 0 0
BITMAP
077000
077000
077000
000000
000000
008000
01C000
01C000
036000
036000
077000
063000
063800
0C3800
0C1C00
1C1C00
180E00
3FFE00
3FFF00
300700
700700
600380
E003C0
ENDCHAR
STARTCHAR Aring
ENCODING 129
SWIDTH 727 0
DWIDTH 17 0
BBX 18 25 0 0
BITMAP
01E000
033000
021000
021000
033000
01E000
000000
01E000
01E000
01E000
03F000
033000
073800
073800
061800
0E1C00
0C0C00
1C0E00
1C0E00
3FFF00
3FFF00
300300
700380
700380
E001C0
ENDCHAR
STARTCHAR Ccedilla
ENCODING 130
SWIDTH 750 0
DWIDTH 18 0
BBX 16 25 1 -6
BITMAP
03F8
0FFE
3E07
3802
7000
6000
E000
C000
C000
C000
C000
C000
E000
6000
7000
3802
3E07
07FE
00F0
0040
0070
0018
0018
0118
01F0
ENDCHAR
STARTCHAR Eacute
ENCODING 131
SWIDTH 569 0
DWIDTH 14 0
BBX 10 24 2 0
BITMAP
0700
0600
0C00
1800
0000
0000
FFC0
FFC0
C000
C000
C000
C000
C000
C000
FFC0
FFC0
C000
C000
C000
C000
C000
C000
FFC0
FFC0
ENDCHAR
STARTCHAR Ntilde
ENCODING 132
SWIDTH 773 0
DWIDTH 19 0
BBX 14 23 2 0
BITMAP
0660
0FC0
0800
0000
0000
C00C
E00C
F00C
F80C
D80C
DC0C
CE0C
C70C
C70C
C38C
C1CC
C0CC
C0EC
C07C
C03C
C01C
C01C
C00C
ENDCHAR
STARTCHAR Odieresis
ENCODING 133
SWIDTH 891 0
DWIDTH 21 0
BBX 19 23 1 0
BITMAP
03B800
03B800
03B800
000000
03F800
0FFE00
3E0F80
380380
7001C0
6000C0
E000E0
C00060
C00060
C00060
C00060
C00060
E000E0
6000C0
7001C0
380380
3E0F80
0FFE00
03F800
ENDCHAR
STARTCHAR Udieresis
ENCODING 134
SWIDTH 748 0
DWIDTH 18 0
BBX 14 23 2 0
BITMAP
0FC0
0FC0
0FC0
0000
0000
C00C
C00C
C00C
C00C
C00C
C00C
C00C
C00C
C00C
C00C
C00C
C00C
C00C
E01C
7038
7878
3FF0
0FC0
ENDCHAR
STARTCHAR aacute
ENCODING 135
SWIDTH 664 0
DWIDTH 16 0
BBX 13 18 1 0
BITMAP
0180
0300
0600
0400
0000
1F98
3FD8
7078
6038
C018
C018
C018
C018
C018
6038
7078
3FD8
0F98
ENDCHAR
STARTCHAR agrave
ENCODING 136
SWIDTH 664 0
DWIDTH 16 0
BBX 13 18 1 0
BITMAP
1C00
0E00
0600
0300
0000
1F98
3FD8
7078
6038
C018
C018
C018
C018
C018
6038
7078
3FD8
0F98
ENDCHAR
STARTCHAR acircumflex
ENCODING 137
SWIDTH 664 0
DWIDTH 16 0
BBX 13 18 1 0
BITMAP
0700
0F00
0980
10C0
0000
1F98
3FD8
7078
6038
C018
C018
C018
C018
C018
6038
7078
3FD8
0F98
ENDCHAR
STARTCHAR adieresis
ENCODING 138
SWIDTH 664 0
DWIDTH 16 0
BBX 13 17 1 0
BITMAP
1DC0
1DC0
1DC0
0000
0F98
3FD8
7878
6038
E018
C018
C018
C018
E018
6038
7878
3FD8
0F98
ENDCHAR
STARTCHAR atilde
ENCODING 139
SWIDTH 664 0
DWIDTH 16 0
BBX 13 17 1 0
BITMAP
1FC0
1F80
1000
0000
1F98
3FD8
7078
6038
C018
C018
C018
C018
C018
6038
7078
3FD8
0F98
ENDCHAR
STARTCHAR aring
ENCODING 140
SWIDTH 664 0
DWIDTH 16 0
BBX 13 20 1 0
BITMAP
0780
0CC0
0840
0840
0CC0
0780
0000
0F98
3FD8
7078
6038
C018
C018
C018
C018
C018
6038
7078
3FD8
0F98
ENDCHAR
STARTCHAR ccedilla
ENCODING 141
SWIDTH 536 0
DWIDTH 13 0
BBX 11 19 1 -6
BITMAP
0F80
3FE0
7840
6000
E000
C000
C000
C000
E000
6000
7860
1FC0
0700
0200
0380
00C0
00C0
08C0
0F80
ENDCHAR
STARTCHAR eacute
ENCODING 142
SWIDTH 625 0
DWIDTH 15 0
BBX 13 18 1 0
BITMAP
0180
0300
0600
0400
0000
0F80
3FC0
70E0
6030
C038
FFF8
FFF8
C000
C000
6020
7070
3FE0
0F80
ENDCHAR
STARTCHAR egrave
ENCODING 143
SWIDTH 625 0
DWIDTH 15 0
BBX 13 18 1 0
BITMAP
1C00
0600
0600
0300
0000
0F80
3FC0
70E0
6030
C038
FFF8
FFF8
C000
C000
6020
7070
3FE0
0F80
ENDCHAR
STARTCHAR ecircumflex
ENCODING 144
SWIDTH 625 0
DWIDTH 15 0
BBX 13 18 1 0
BITMAP
0700
0F00
0980
18C0
0000
0F80
3FC0
70E0
6030
C038
FFF8
FFF8
C000
C000
6020
7070
3FE0
0F80
ENDCHAR
STARTCHAR edieresis
ENCODING 145
SWIDTH 625 0
DWIDTH 15 0
BBX 13 17 1 0
BITMAP
1DC0
1DC0
1DC0
0000
0F80
3FE0
7070
6030
C038
FFF8
FFF8
C000
C000
6030
7870
3FE0
0F80
ENDCHAR
STARTCHAR iacute
ENCODING 146
SWIDTH 250 0
DWIDTH 6 0
BBX 5 18 1 0
BITMAP
38
30
60
C0
00
00
60
60
60
60
60
60
60
60
60
60
60
60
ENDCHAR
STARTCHAR igrave
ENCODING 147
SWIDTH 250 0
DWIDTH 6 0
BBX 5 18 0 0
BITMAP
E0
60
30
18
00
00
30
30
30
30
30
30
30
30
30
30
30
30
ENDCHAR
STARTCHAR icircumflex
ENCODING 148
SWIDTH 250 0
DWIDTH 6 0
BBX 7 18 -1 0
BITMAP
18
3C
64
C6
00
00
18
18
18
18
18
18
18
18
18
18
18
18
ENDCHAR
STARTCHAR idieresis
ENCODING 149
SWIDTH 250 0
DWIDTH 6 0
BBX 6 17 0 0
BITMAP
CC
FC
CC
00
00
30
30
30
30
30
30
30
30
30
30
30
30
ENDCHAR
STARTCHAR ntilde
ENCODING 150
SWIDTH 593 0
DWIDTH 14 0
BBX 11 17 2 0
BITMAP
0CC0
1F80
2000
0000
CF80
FFC0
F0C0
E0E0
C060
C060
C060
C060
C060
C060
C060
C060
C060
ENDCHAR
STARTCHAR oacute
ENCODING 151
SWIDTH 618 0
DWIDTH 15 0
BBX 13 18 1 0
BITMAP
01C0
0300
0200
0600
0000
0F80
3FE0
7070
6030
C018
C018
C018
C018
C018
6030
7070
3FE0
0F80
ENDCHAR
STARTCHAR ograve
ENCODING 152
SWIDTH 618 0
DWIDTH 15 0
BBX 13 18 1 0
BITMAP
1C00
0600
0200
0100
0000
0F80
3FE0
7070
6030
C018
C018
C018
C018
C018
6030
7070
3FE0
0F80
ENDCHAR
STARTCHAR ocircumflex
ENCODING 153
SWIDTH 618 0
DWIDTH 15 0
BBX 13 18 1 0
BITMAP
0700
0D80
0880
18C0
0000
0F80
3FE0
7070
6030
C018
C018
C018
C018
C018
6030
7070
3FE0
0F80
ENDCHAR
STARTCHAR odieresis
ENCODING 154
SWIDTH 618 0
DWIDTH 15 0
BBX 13 17 1 0
BITMAP
1DC0
1DC0
1DC0
0000
0F80
3FE0
78F0
6030
E038
C018
C018
C018
E038
6030
78F0
3FE0
0F80
ENDCHAR
STARTCHAR otilde
ENCODING 155
SWIDTH 618 0
DWIDTH 15 0
BBX 13 17 1 0
BITMAP
0E40
1F80
0000
0000
0F80
3FE0
7070
6030
C018
C018
C018
C018
C018
6030
7070
3FE0
0F80
ENDCHAR
STARTCHAR uacute
ENCODING 156
SWIDTH 579 0
DWIDTH 14 0
BBX 10 18 2 0
BITMAP
0700
0600
0C00
0800
0000
C0C0
C0C0
C0C0
C0C0
C0C0
C0C0
C0C0
C0C0
C0C0
E1C0
6180
7F80
1E00
ENDCHAR
STARTCHAR ugrave
ENCODING 157
SWIDTH 579 0
DWIDTH 14 0
BBX 10 18 2 0
BITMAP
3800
1800
0C00
0600
0000
C0C0
C0C0
C0C0
C0C0
C0C0
C0C0
C0C0
C0C0
C0C0
E1C0
6180
7F80
1E00
ENDCHAR
STARTCHAR ucircumflex
ENCODING 158
SWIDTH 579 0
DWIDTH 14 0
BBX 10 18 2 0
BITMAP
0C00
1E00
3300
2100
0000
C0C0
C0C0
C0C0
C0C0
C0C0
C0C0
C0C0
C0C0
C0C0
E1C0
6180
7F80
1E00
ENDCHAR
STARTCHAR udieresis
ENCODING 159
SWIDTH 579 0
DWIDTH 14 0
BBX 10 17 2 0
BITMAP
3B00
3F00
3F00
0000
0000
C0C0
C0C0
C0C0
C0C0
C0C0
C0C0
C0C0
C0C0
E1C0
7380
3F00
1E00
ENDCHAR
STARTCHAR dagger
ENCODING 160
SWIDTH 500 0
DWIDTH 12 0
BBX 7 20 3 -1
BITMAP
78
38
30
30
94
FC
92
30
30
78
78
30
30
30
30
10
10
10
10
10
ENDCHAR
STARTCHAR degree
ENCODING 161
SWIDTH 329 0
DWIDTH 8 0
BBX 6 7 1 10
BITMAP
78
CC
84
84
84
CC
78
ENDCHAR
STARTCHAR cent
ENCODING 162
SWIDTH 556 0
DWIDTH 13 0
BBX 11 20 1 -1
BITMAP
0200
0200
0200
0300
1FC0
7FE0
7240
E200
C200
C200
C200
C200
E200
7240
7FE0
1FC0
0200
0200
0200
0200
ENDCHAR
STARTCHAR sterling
ENCODING 163
SWIDTH 556 0
DWIDTH 13 0
BBX 12 18 1 0
BITMAP
1F00
3F80
71C0
60C0
60E0
6000
3000
3000
FE00
FE00
1800
1800
1800
1800
3000
7E10
FFE0
43E0
ENDCHAR
STARTCHAR section
ENCODING 164
SWIDTH 500 0
DWIDTH 12 0
BBX 10 20 1 -1
BITMAP
1E00
3F00
3300
3000
3800
3C00
7E00
CF00
C700
E380
70C0
38C0
3FC0
0F00
0700
0300
0300
6300
3F00
1E00
ENDCHAR
STARTCHAR bullet
ENCODING 165
SWIDTH 590 0
DWIDTH 14 0
BBX 7 7 4 5
BITMAP
38
7C
FE
FE
FE
7C
38
ENDCHAR
STARTCHAR paragraph
ENCODING 166
SWIDTH 500 0
DWIDTH 12 0
BBX 10 17 1 0
BITMAP
3FC0
7C80
FC80
FC80
FC80
FC80
7C80
3C80
0C80
0C80
0C80
0C80
0C80
0C80
0C80
0C80
0C80
ENDCHAR
STARTCHAR germandbls
ENCODING 167
SWIDTH 616 0
DWIDTH 15 0
BBX 13 18 1 0
BITMAP
1F80
3FC0
70E0
6060
6060
E0E0
E1C0
67C0
67E0
6070
6038
6018
6018
6018
6038
6070
6FE0
6FC0
ENDCHAR
STARTCHAR registered
ENCODING 168
SWIDTH 833 0
DWIDTH 20 0
BBX 18 17 1 0
BITMAP
07F000
1C0C00
300300
67F180
463880
8618C0
861840
863840
87F040
866040
867040
C630C0
463880
600180
300700
1C1C00
07F000
ENDCHAR
STARTCHAR copyright
ENCODING 169
SWIDTH 833 0
DWIDTH 20 0
BBX 18 17 1 0
BITMAP
07F000
1C0E00
300300
63F180
463880
8E1840
8C0040
8C0040
8C0040
8C0040
8E1840
C638C0
47F080
61E180
300300
1C0E00
07F000
ENDCHAR
STARTCHAR trademark
ENCODING 170
SWIDTH 833 0
DWIDTH 20 0
BBX 15 6 2 11
BITMAP
FCC6
10C6
10AA
10AA
10BA
1092
ENDCHAR
STARTCHAR acute
ENCODING 171
SWIDTH 500 0
DWIDTH 12 0
BBX 5 4 4 14
BITMAP
38
30
60
C0
ENDCHAR
STARTCHAR dieresis
ENCODING 172
SWIDTH 500 0
DWIDTH 12 0
BBX 6 3 3 14
BITMAP
FC
FC
FC
ENDCHAR
STARTCHAR AE
ENCODING 174
SWIDTH 884 0
DWIDTH 21 0
BBX 20 18 -1 0
BITMAP
007FF0
007FF0
00D800
00D800
019800
019800
039800
031800
071FF0
061FF0
0E1800
0C1800
1FF800
1FF800
381800
301800
601FF0
E01FF0
ENDCHAR
STARTCHAR Oslash
ENCODING 175
SWIDTH 891 0
DWIDTH 21 0
BBX 19 22 1 -2
BITMAP
0000C0
03F980
0FFF00
3E0780
380780
700DC0
6018C0
E018E0
C03060
C06060
C0E060
C0C060
C18060
E300E0
6300C0
7601C0
3C0380
3C0F80
1FFE00
33F800
600000
200000
ENDCHAR
STARTCHAR plusminus
ENCODING 177
SWIDTH 833 0
DWIDTH 20 0
BBX 14 14 3 0
BITMAP
0300
0300
0300
0300
FFFC
FFFC
0300
0300
0300
0300
0000
0000
FFFC
FFFC
ENDCHAR
STARTCHAR yen
ENCODING 180
SWIDTH 556 0
DWIDTH 13 0
BBX 14 18 -1 0
BITMAP
600C
7018
3818
1830
1C30
0C60
FE7C
07C0
03C0
03C0
FFFC
0180
0180
0180
0180
0180
0180
0180
ENDCHAR
STARTCHAR mu
ENCODING 181
SWIDTH 590 0
DWIDTH 14 0
BBX 15 18 -1 -5
BITMAP
0E0E
1C0C
1C0C
1C1C
1C1C
181C
3818
3818
3838
3838
3C78
3FFC
77BC
7000
7000
6000
6000
E000
ENDCHAR
STARTCHAR ordfeminine
ENCODING 187
SWIDTH 498 0
DWIDTH 12 0
BBX 10 10 1 9
BITMAP
3EC0
73C0
E1C0
C0C0
C0C0
C0C0
C0C0
61C0
73C0
1EC0
ENDCHAR
STARTCHAR ordmasculine
ENCODING 188
SWIDTH 464 0
DWIDTH 11 0
BBX 9 10 1 9
BITMAP
3E00
6300
6300
C180
C180
C180
C180
6300
6300
3E00
ENDCHAR
STARTCHAR ae
ENCODING 190
SWIDTH 1072 0
DWIDTH 26 0
BBX 24 13 1 0
BITMAP
1F99F0
3FDBF8
707E1C
603C0E
E03806
C01807
C01FFF
C01FFF
C01800
E03C02
707E0E
3FDBFC
0F99F0
ENDCHAR
STARTCHAR oslash
ENCODING 191
SWIDTH 618 0
DWIDTH 15 0
BBX 13 17 1 -2
BITMAP
0018
0010
0FB0
3FE0
70F0
60F0
C198
C318
C618
C618
CC18
7830
7070
3FE0
6F80
4000
C000
ENDCHAR
STARTCHAR questiondown
ENCODING 192
SWIDTH 491 0
DWIDTH 12 0
BBX 10 19 1 0
BITMAP
0600
0E00
0600
0000
0000
0600
0600
0E00
0E00
1C00
7800
7000
E000
C000
C0C0
C1C0
E380
7F80
3F00
ENDCHAR
STARTCHAR exclamdown
ENCODING 193
SWIDTH 278 0
DWIDTH 7 0
BBX 3 19 2 0
BITMAP
C0
E0
C0
00
00
C0
C0
C0
C0
C0
C0
C0
C0
C0
C0
C0
C0
C0
C0
ENDCHAR
STARTCHAR logicalnot
ENCODING 194
SWIDTH 833 0
DWIDTH 20 0
BBX 14 6 3 4
BITMAP
FFFC
FFFC
000C
000C
000C
000C
ENDCHAR
STARTCHAR florin
ENCODING 196
SWIDTH 556 0
DWIDTH 13 0
BBX 14 23 -1 -5
BITMAP
003C
007C
00E0
00C0
01C0
01C0
0180
0FF0
0FF0
0380
0380
0300
0300
0300
0700
0600
0600
0600
0E00
0C00
1C00
F800
F000
ENDCHAR
STARTCHAR guillemotleft
ENCODING 199
SWIDTH 514 0
DWIDTH 12 0
BBX 11 9 1 2
BITMAP
18E0
31C0
7180
6380
E300
6380
7180
31C0
18E0
ENDCHAR
STARTCHAR guillemotright
ENCODING 200
SWIDTH 514 0
DWIDTH 12 0
BBX 11 9 0 2
BITMAP
E300
7180
31C0
38C0
18E0
38C0
31C0
7180
E300
ENDCHAR
STARTCHAR ellipsis
ENCODING 201
SWIDTH 1000 0
DWIDTH 24 0
BBX 20 3 2 0
BITMAP
E0E070
E0E070
E0E070
ENDCHAR
STARTCHAR nbspace
ENCODING 202
SWIDTH 556 0
DWIDTH 13 0
BBX 0 0 0 -6
BITMAP
ENDCHAR
STARTCHAR Agrave
ENCODING 203
SWIDTH 727 0
DWIDTH 17 0
BBX 18 24 0 0
BITMAP
038000
018000
00C000
006000
000000
000000
00C000
01E000
01E000
03E000
037000
073000
073800
061800
0E1C00
0C1C00
1C0E00
1C0E00
1FFE00
3FFF00
300700
700380
600380
E001C0
ENDCHAR
STARTCHAR Atilde
ENCODING 204
SWIDTH 727 0
DWIDTH 17 0
BBX 19 23 0 0
BITMAP
019000
03F000
023FE0
000000
000000
00C000
01E000
01E000
03E000
037000
033000
073800
061800
0E1C00
0C1C00
1C0E00
1C0E00
1FFE00
3FFF00
300700
700380
600380
E001C0
ENDCHAR
STARTCHAR Otilde
ENCODING 205
SWIDTH 891 0
DWIDTH 21 0
BBX 19 23 1 0
BITMAP
008800
01F800
037000
000000
03F800
0FFE00
3E0F80
380380
7001C0
6000C0
E000E0
C00060
C00060
C00060
C00060
C00060
E000E0
6000C0
7001C0
380380
3E0F80
0FFE00
03F800
ENDCHAR
STARTCHAR OE
ENCODING 206
SWIDTH 1185 0
DWIDTH 28 0
BBX 26 19 1 0
BITMAP
01E00000
0FFCFFC0
1E1EFFC0
3C0FC000
7003C000
6001C000
6001C000
C000C000
C000C000
C000FFC0
C000FFC0
C000C000
C000C000
E001C000
6001C000
7003C000
3C07C000
1FFEFFC0
07F8FFC0
ENDCHAR
STARTCHAR oe
ENCODING 207
SWIDTH 1060 0
DWIDTH 25 0
BBX 24 13 1 0
BITMAP
0F81F0
3FE7F8
707E1C
603C06
E03806
C01807
C01FFF
C01FFF
C01800
E03C02
707E0E
3FE7FC
0F81F0
ENDCHAR
STARTCHAR endash
ENCODING 208
SWIDTH 500 0
DWIDTH 12 0
BBX 12 2 0 6
BITMAP
FFF0
FFF0
ENDCHAR
STARTCHAR emdash
ENCODING 209
SWIDTH 1000 0
DWIDTH 24 0
BBX 24 2 0 6
BITMAP
FFFFFF
FFFFFF
ENDCHAR
STARTCHAR quotedblleft
ENCODING 210
SWIDTH 491 0
DWIDTH 12 0
BBX 10 7 0 12
BITMAP
1880
31C0
3180
7180
6300
E700
6300
ENDCHAR
STARTCHAR quotedblright
ENCODING 211
SWIDTH 491 0
DWIDTH 12 0
BBX 10 7 0 12
BITMAP
3180
39C0
3180
7380
6300
E300
4600
ENDCHAR
STARTCHAR quoteleft
ENCODING 212
SWIDTH 278 0
DWIDTH 7 0
BBX 5 7 0 12
BITMAP
10
38
30
70
60
E0
60
ENDCHAR
STARTCHAR quoteright
ENCODING 213
SWIDTH 278 0
DWIDTH 7 0
BBX 5 7 0 12
BITMAP
30
38
30
70
60
E0
40
ENDCHAR
STARTCHAR divide
ENCODING 214
SWIDTH 833 0
DWIDTH 20 0
BBX 14 12 3 1
BITMAP
0380
0380
0380
0000
0000
FFFC
FFFC
0000
0000
0380
0380
0380
ENDCHAR
STARTCHAR ydieresis
ENCODING 216
SWIDTH 556 0
DWIDTH 13 0
BBX 13 22 0 -5
BITMAP
1DC0
1DC0
1DC0
0000
0000
E038
6030
7030
3060
3860
18E0
1CC0
1DC0
0D80
0D80
0700
0700
0700
0600
0E00
0C00
1C00
ENDCHAR
STARTCHAR Ydieresis
ENCODING 217
SWIDTH 613 0
DWIDTH 15 0
BBX 15 23 0 0
BITMAP
0660
0EE0
0E60
0000
0000
E00E
701C
301C
3838
1830
0C70
0E60
06E0
02C0
03C0
0180
0180
0180
0180
0180
0180
0180
0180
ENDCHAR
STARTCHAR currency
ENCODING 219
SWIDTH 606 0
DWIDTH 15 0
BBX 13 13 1 4
BITMAP
8010
C038
6F70
7FE0
30C0
6060
6060
6060
6060
30C0
7FE0
6F30
8018
ENDCHAR
STARTCHAR guilsinglleft
ENCODING 220
SWIDTH 322 0
DWIDTH 8 0
BBX 5 9 1 2
BITMAP
38
30
60
60
C0
60
60
30
38
ENDCHAR
STARTCHAR guilsinglright
ENCODING 221
SWIDTH 322 0
DWIDTH 8 0
BBX 5 9 1 2
BITMAP
E0
60
30
30
18
30
30
60
E0
ENDCHAR
STARTCHAR daggerdbl
ENCODING 224
SWIDTH 500 0
DWIDTH 12 0
BBX 9 20 1 -1
BITMAP
1C00
1C00
0800
0800
C980
FF80
8880
0800
0800
1C00
1C00
0800
0800
8880
FF80
C980
0800
0800
1C00
1C00
ENDCHAR
STARTCHAR periodcentered
ENCODING 225
SWIDTH 278 0
DWIDTH 7 0
BBX 3 3 2 7
BITMAP
E0
E0
E0
ENDCHAR
STARTCHAR quotesinglbase
ENCODING 226
SWIDTH 278 0
DWIDTH 7 0
BBX 5 7 0 -4
BITMAP
30
38
30
70
60
E0
40
ENDCHAR
STARTCHAR quotedblbase
ENCODING 227
SWIDTH 491 0
DWIDTH 12 0
BBX 10 7 0 -4
BITMAP
3180
39C0
3180
7380
6300
E300
4600
ENDCHAR
STARTCHAR perthousand
ENCODING 228
SWIDTH 1252 0
DWIDTH 30 0
BBX 28 18 1 0
BITMAP
38060000
7C0C0000
C60C0000
C6180000
C6180000
C6300000
C6300000
7C600000
38600000
00C381C0
00C7C3E0
018C6630
018C6630
030C6630
030C6630
060C6630
0607C3E0
0C0381C0
ENDCHAR
STARTCHAR Acircumflex
ENCODING 229
SWIDTH 727 0
DWIDTH 17 0
BBX 18 24 0 0
BITMAP
00C000
01E000
033000
021000
000000
000000
00C000
01E000
01E000
03E000
037000
073000
073800
061800
0E1C00
0C1C00
1C0E00
1C0E00
1FFE00
3FFF00
300700
700380
600380
E001C0
ENDCHAR
STARTCHAR Ecircumflex
ENCODING 230
SWIDTH 569 0
DWIDTH 14 0
BBX 10 24 2 0
BITMAP
1C00
1E00
3300
2100
0080
0000
FFC0
FFC0
C000
C000
C000
C000
C000
C000
FFC0
FFC0
C000
C000
C000
C000
C000
C000
FFC0
FFC0
ENDCHAR
STARTCHAR Aacute
ENCODING 231
SWIDTH 727 0
DWIDTH 17 0
BBX 18 24 0 0
BITMAP
007000
006000
00C000
018000
000000
000000
00C000
01E000
01E000
03E000
037000
073000
073800
061800
0E1C00
0C1C00
1C0E00
1C0E00
1FFE00
3FFF00
300700
700380
600380
E001C0
ENDCHAR
STARTCHAR Edieresis
ENCODING 232
SWIDTH 569 0
DWIDTH 14 0
BBX 10 23 2 0
BITMAP
3380
3B80
3380
0000
0000
FFC0
FFC0
C000
C000
C000
C000
C000
C000
FFC0
FFC0
C000
C000
C000
C000
C000
C000
FFC0
FFC0
ENDCHAR
STARTCHAR Egrave
ENCODING 233
SWIDTH 569 0
DWIDTH 14 0
BBX 10 24 2 0
BITMAP
3000
1800
0C00
0400
0200
0000
FFC0
FFC0
C000
C000
C000
C000
C000
C000
FFC0
FFC0
C000
C000
C000
C000
C000
C000
FFC0
FFC0
ENDCHAR
STARTCHAR Iacute
ENCODING 234
SWIDTH 278 0
DWIDTH 7 0
BBX 4 24 2 0
BITMAP
70
60
C0
80
00
00
C0
C0
C0
C0
C0
C0
C0
C0
C0
C0
C0
C0
C0
C0
C0
C0
C0
C0
ENDCHAR
STARTCHAR Icircumflex
ENCODING 235
SWIDTH 278 0
DWIDTH 7 0
BBX 6 24 0 0
BITMAP
30
78
4C
C4
00
00
30
30
30
30
30
30
30
30
30
30
30
30
30
30
30
30
30
30
ENDCHAR
STARTCHAR Idieresis
ENCODING 236
SWIDTH 278 0
DWIDTH 7 0
BBX 7 23 0 0
BITMAP
CE
EE
CE
00
00
30
30
30
30
30
30
30
30
30
30
30
30
30
30
30
30
30
30
ENDCHAR
STARTCHAR Igrave
ENCODING 237
SWIDTH 278 0
DWIDTH 7 0
BBX 4 24 0 0
BITMAP
E0
60
30
10
00
00
30
30
30
30
30
30
30
30
30
30
30
30
30
30
30
30
30
30
ENDCHAR
STARTCHAR Oacute
ENCODING 238
SWIDTH 891 0
DWIDTH 21 0
BBX 19 24 1 0
BITMAP
003800
007000
006000
00C000
000000
03F800
0FFE00
3E0F80
380380
7001C0
6000C0
E000E0
C00060
C00060
C00060
C00060
C00060
E000E0
6000C0
7001C0
380380
3E0F80
0FFE00
03F800
ENDCHAR
STARTCHAR Ocircumflex
ENCODING 239
SWIDTH 891 0
DWIDTH 21 0
BBX 19 24 1 0
BITMAP
00E000
01F000
019800
030800
000000
03F800
0FFE00
3E0F80
380380
7001C0
6000C0
E000E0
C00060
C00060
C00060
C00060
C00060
E000E0
6000C0
7001C0
380380
3E0F80
0FFE00
03F800
ENDCHAR
STARTCHAR Ograve
ENCODING 241
SWIDTH 891 0
DWIDTH 21 0
BBX 19 24 1 0
BITMAP
018000
00C000
006000
002000
000000
03F800
0FFE00
3E0F80
380380
7001C0
6000C0
E000E0
C00060
C00060
C00060
C00060
C00060
E000E0
6000C0
7001C0
380380
3E0F80
0FFE00
03F800
ENDCHAR
STARTCHAR Uacute
ENCODING 242
SWIDTH 748 0
DWIDTH 18 0
BBX 14 24 2 0
BITMAP
01C0
0180
0300
0600
0000
0000
C00C
C00C
C00C
C00C
C00C
C00C
C00C
C00C
C00C
C00C
C00C
C00C
C00C
E01C
6018
7878
3FF0
0FC0
ENDCHAR
STARTCHAR Ucircumflex
ENCODING 243
SWIDTH 748 0
DWIDTH 18 0
BBX 14 24 2 0
BITMAP
0780
0780
0CC0
1860
0000
0000
C00C
C00C
C00C
C00C
C00C
C00C
C00C
C00C
C00C
C00C
C00C
C00C
C00C
E01C
6018
7878
3FF0
0FC0
ENDCHAR
STARTCHAR Ugrave
ENCODING 244
SWIDTH 748 0
DWIDTH 18 0
BBX 14 24 2 0
BITMAP
0E00
0600
0300
0180
0000
0000
C00C
C00C
C00C
C00C
C00C
C00C
C00C
C00C
C00C
C00C
C00C
C00C
C00C
E01C
6018
7878
3FF0
0FC0
ENDCHAR
STARTCHAR circumflex
ENCODING 246
SWIDTH 500 0
DWIDTH 12 0
BBX 7 4 2 14
BITMAP
38
28
6C
C6
ENDCHAR
STARTCHAR tilde
ENCODING 247
SWIDTH 500 0
DWIDTH 12 0
BBX 7 2 2 15
BITMAP
76
DC
ENDCHAR
STARTCHAR macron
ENCODING 248
SWIDTH 500 0
DWIDTH 12 0
BBX 6 2 3 15
BITMAP
FC
FC
ENDCHAR
STARTCHAR cedilla
ENCODING 252
SWIDTH 500 0
DWIDTH 12 0
BBX 6 6 3 -6
BITMAP
10
18
0C
0C
8C
F8
ENDCHAR
ENDFONT
